# xmcd CD database file
#
# Track frame offsets:
#	150
#	10364
#	22087
#	46163
#	68173
#	91799
#	112686
#	135961
#	155317
#	177293
#	191843
#
# Disc length: 2679 seconds
#
# Revision: 0
# Processed by: cddbd v1.5PL3 Copyright (c) Steve Scherf et al.
# Submitted via: CDex 1.50beta8
#
DISCID=800a750b
DTITLE=YAZAWA Coverz - Joy Ride
DYEAR=1900
DGENRE=ロック (一般)
TTITLE0=Luizzy Anna
TTITLE1=Rock'n My Heart
TTITLE2=Sewaga Yakeryze
TTITLE3=Why Did You Ever Go
TTITLE4=I Sad Goodbye So, Goodbye
TTITLE5=Hurricane
TTITLE6=Anoko To Kurasenai
TTITLE7=Paint It Black
TTITLE8=Rock-N-Roll Bible
TTITLE9=I Love You Ok
TTITLE10=Funky Monky Babe
EXTD=
EXTT0=
EXTT1=
EXTT2=
EXTT3=
EXTT4=
EXTT5=
EXTT6=
EXTT7=
EXTT8=
EXTT9=
EXTT10=
PLAYORDER=
